<svg xmlns="http://www.w3.org/2000/svg" viewBox="0 0 48 48" width="512" height="512">
  <path fill="#fbbc05" d="M44.5 20H24v8.5h11.8C34.9 34.1 30.2 37 24 37c-6.6 0-12.3-4.4-14.3-10.4L5 31.4C7.8 38.6 15.3 43.5 24 43.5c9.3 0 17.2-6.5 19.7-15.3H44.5z" />
  <path fill="#ea4335" d="M10.3 26.6C9.8 25.1 9.5 23.6 9.5 22s.3-3.1.8-4.6L5 14.6C3.5 17.5 2.5 20.7 2.5 24s1 6.5 2.5 9.4l5.3-4.4z" />
  <path fill="#34a853" d="M24 9.5c3.5 0 6.6 1.2 9.1 3.4l6.8-6.8C36.8 2.7 30.7.5 24 .5 15.3.5 7.8 5.4 5 12.6l5.3 4.4C11.7 13.9 17.4 9.5 24 9.5z" />
  <path fill="#4285f4" d="M44.5 20H24v8.5h11.8C34.9 34.1 30.2 37 24 37c-6.6 0-12.3-4.4-14.3-10.4L5 31.4C7.8 38.6 15.3 43.5 24 43.5c9.3 0 17.2-6.5 19.7-15.3H44.5z" />
  <path fill="none" d="M0 0h48v48H0z" />
</svg>